<svg width="500" height="500.0079999999999" xmlns="http://www.w3.org/2000/svg">

 <g>
  <title>background</title>
  <rect fill="none" id="canvas_background" height="402" width="582" y="-1" x="-1"/>
 </g>
 <g>
  <title>Layer 1</title>
  <rect x="0" id="svg_2" fill="#ffffff" y="0" width="500" height="500.008"/>
  <path id="svg_4" fill="#cc0000" d="m374.688,366.012c-1.934,0.895 -3.896,1.715 -5.896,2.49c-1.897,0.732 -3.846,1.318 -5.772,1.92c-5.156,3.998 -11.902,6.312 -19.264,6.328l-13.951,0c-6.615,-0.016 -12.656,-1.934 -17.565,-5.201c-2.117,-0.557 -4.227,-1.186 -6.307,-1.889c-4.488,-1.539 -8.832,-3.457 -13.043,-5.684c-1.443,2.402 -3.281,4.541 -5.486,6.283c-5.186,4.102 -12.049,6.49 -19.527,6.504l-13.951,0c-7.487,-0.014 -14.349,-2.402 -19.535,-6.504c-4.263,-3.369 -7.397,-8.129 -8.364,-13.564l-6.123,0c-0.975,5.435 -4.116,10.182 -8.371,13.551c-5.186,4.115 -12.057,6.488 -19.527,6.518l-13.959,0c-7.479,-0.029 -14.342,-2.402 -19.534,-6.518c-4.255,-3.369 -7.39,-8.115 -8.357,-13.551l-3.509,0c-0.974,5.435 -4.108,10.182 -8.372,13.551c-5.186,4.115 -12.055,6.504 -19.525,6.518l-13.968,0c-7.471,-0.014 -14.333,-2.402 -19.512,-6.518c-4.167,-3.281 -7.243,-7.881 -8.298,-13.141c-8.27,1.758 -14.473,9.111 -14.473,17.916l0,11.117c0,10.107 8.188,18.311 18.31,18.311l286.934,0c10.107,0 18.311,-8.203 18.311,-18.311l0,-4.965l-11.366,-15.161z"/>
  <path id="svg_5" fill="#cc0000" d="m335.892,236.26c-7.668,0 -15.315,2 -22.127,5.765c-2.504,1.392 -4.812,3.003 -6.973,4.761l0,70.682c2.176,1.803 4.49,3.428 6.973,4.805c6.408,3.56 13.316,5.478 20.529,5.728l1.576,0.029c8.238,0 16.361,-2.271 23.496,-6.549c2.695,-1.611 5.119,-3.529 7.397,-5.596l0,-67.481c-2.277,-2.072 -4.695,-4.02 -7.397,-5.64c-6.621,-3.97 -14.203,-6.211 -21.914,-6.475l-1.56,-0.029z"/>
  <path id="svg_6" fill="#cc0000" d="m329.806,140.195c-12.715,0 -23.014,8.203 -23.014,18.311l0,35.947c9.42,-3.135 19.168,-4.826 29.113,-4.826c1.055,0 2.117,0.021 3.172,0.051c9.455,0.33 18.721,2.197 27.686,5.398l0,-36.57c0,-10.107 -10.297,-18.311 -23.006,-18.311l-13.951,0z"/>
  <path id="svg_7" fill="#cc0000" d="m276.901,211.064c-2.775,-0.959 -5.801,-1.538 -9.023,-1.538l-13.951,0c-12.708,0 -23.006,8.203 -23.006,18.311l0,118.181c0,10.121 10.298,18.311 23.006,18.311l13.951,0c6.439,0 12.166,-2.168 16.334,-5.566c-0.535,-0.352 -1.092,-0.674 -1.611,-1.041c-25.621,-18.105 -40.269,-47.549 -39.185,-78.779c0.93,-26.534 13.148,-50.996 33.485,-67.879z"/>
  <path id="svg_8" fill="#cc0000" d="m178.047,181.401c-12.701,0 -22.998,8.196 -22.998,18.311l0,146.306c0,10.121 10.297,18.311 22.998,18.311l13.959,0c12.708,0 22.998,-8.189 22.998,-18.311l0,-146.306c0,-10.114 -10.29,-18.311 -22.998,-18.311l-13.959,0z"/>
  <path id="svg_9" fill="#cc0000" d="m104.783,364.328l13.968,0c12.715,0 22.998,-8.189 22.998,-18.311l0,-95.065c0,-10.107 -10.283,-18.311 -22.998,-18.311l-13.968,0c-12.692,0 -22.998,8.203 -22.998,18.311l0,95.065c0,10.122 10.305,18.311 22.998,18.311z"/>
  <path id="svg_10" fill="#cc0000" d="m93.819,225.325c3.852,0 6.979,-3.128 6.979,-6.98c0,-0.498 -0.19,-0.938 -0.286,-1.406l73.727,-53.276c1.003,0.557 2.094,0.952 3.317,0.952c2.263,0 4.167,-1.135 5.449,-2.79l71.308,23.913c0.732,3.055 3.369,5.369 6.645,5.369c3.852,0 6.978,-3.12 6.978,-6.98c0,-0.607 -0.197,-1.143 -0.344,-1.706l64.557,-69.134l11.074,10.569l2.709,-28.96l-28.791,4.087l10.744,10.246l-64.035,68.584c-0.887,-0.402 -1.853,-0.666 -2.893,-0.666c-2.25,0 -4.154,1.135 -5.42,2.79l-71.325,-23.906c-0.739,-3.054 -3.369,-5.368 -6.657,-5.368c-3.853,0 -6.973,3.127 -6.973,6.973c0,0.439 0.169,0.82 0.249,1.23l-73.841,53.364c-0.96,-0.506 -2.007,-0.85 -3.171,-0.85c-3.86,0 -6.988,3.12 -6.988,6.965c0,3.852 3.128,6.98 6.988,6.98z"/>
  <path id="svg_11" fill="#cc0000" d="m435.157,388.176l-40.219,-45.234l-1.889,1.537l-4.541,-4.672c14.984,-13.668 24.676,-33.105 25.422,-54.961c1.158,-33.095 -18.494,-62.04 -47.168,-74.403c-8.68,-3.75 -18.156,-6.043 -28.168,-6.38c-11.25,-0.396 -21.996,1.655 -31.803,5.604c-6.547,2.629 -12.67,6.086 -18.215,10.312c-18.004,13.711 -29.934,35.082 -30.791,59.461c-0.945,27.334 12.305,51.842 33.098,66.52c5.992,4.232 12.598,7.66 19.695,10.078c7.111,2.432 14.699,3.896 22.609,4.16c10.738,0.381 21.014,-1.494 30.455,-5.113c6.422,-2.475 12.48,-5.742 17.988,-9.727l-0.66,0.543l3.713,5.404l-1.889,1.553l36.291,48.443c3.625,4.438 10.158,5.098 14.605,1.465c4.426,-3.633 5.1,-10.166 1.467,-14.59zm-68.394,-54.362c-9.631,5.772 -20.947,8.965 -32.973,8.555c-9.801,-0.336 -18.949,-3.061 -26.998,-7.529c-6.014,-3.324 -11.381,-7.631 -15.908,-12.715c-9.924,-11.176 -15.805,-25.986 -15.234,-42.07c0.49,-14.604 6.203,-27.827 15.234,-37.957c4.527,-5.076 9.932,-9.331 15.908,-12.649c9.221,-5.112 19.871,-7.925 31.158,-7.529c10.539,0.366 20.353,3.442 28.812,8.511c18.201,10.913 30.133,31.125 29.355,53.785c-0.739,21.196 -12.405,39.432 -29.354,49.598z"/>
 </g>
</svg>